# xmcd
#
# Track frame offsets:
#	183
#	10360
#	22650
#	36160
#	47738
#	59893
#	71780
#	85670
#	99798
#	110778
#	121638
#	133003
#	146323
#	156368
#	169265
#	182055
#	195505
#	207473
#	220730
#	232383
#
# Disc length: 3277
#
# Revision: 2
# Processed by: cddbd v1.5.1PL0 Copyright (c) Steve Scherf et al.
# Submitted via: EasyCDDAExtractor 5.0.6
# Normalized: r1:DSETVAR1
#
DISCID=200ccb14
DTITLE=Various Artist - Big Country Classics Vol. 10
DYEAR=1988
DGENRE=Country
TTITLE0=Sonny Jones - You're The Only World
TTITLE1=Bill Anderson - My Life (Throw It Away If You Want To)
TTITLE2=David Houston - Almost Persuaded
TTITLE3=Wynn Stewart - It's Such A Pretty World Today
TTITLE4=Dell Reeve - Girl On A Billboard
TTITLE5=Kitty Wells - Heartbreak USA
TTITLE6=Lefty Frizzell - Saginaw, Michigan
TTITLE7=Jim Reeves - This Is It
TTITLE8=Buck Owens - Together Again
TTITLE9=Johnny Cash - Daddy Sang Bass
TTITLE10=Eddy Arnold - Turn The World Around The Other Way
TTITLE11=Loretta Lynn - Woman Of The World (Leave My Man Alone)
TTITLE12=George Hamilton IV - Abilene
TTITLE13=Johnny Horton - North To Alaska
TTITLE14=Stonewall Jackson - BJ The DJ
TTITLE15=Tammy Wynette - D.I.V.O.R.C.E.
TTITLE16=Marty Robbins - Begging To You
TTITLE17=Wanda Jackson - I Fall To Pieces
TTITLE18=Leon Ashley - Laura (What's He Got That I Ain't Got)
TTITLE19=Buck Owens - Tall Dark Stranger
EXTD=Trax Music Ltd. TRXCD 5011\n20 Number One Hits Of The 60's
EXTT0=
EXTT1=
EXTT2=
EXTT3=
EXTT4=
EXTT5=
EXTT6=
EXTT7=
EXTT8=
EXTT9=
EXTT10=
EXTT11=
EXTT12=
EXTT13=
EXTT14=
EXTT15=
EXTT16=
EXTT17=
EXTT18=
EXTT19=
PLAYORDER=
